<svg width="279" height="68" viewBox="0 0 279 68" fill="none" xmlns="http://www.w3.org/2000/svg">
<path d="M2.23302 67C1.34969 67 0.90802 66.629 0.90802 65.887V65.675C0.90802 65.2157 1.26135 64.509 1.96802 63.555C2.71002 62.5657 3.08102 61.594 3.08102 60.64V35.73C3.08102 34.776 2.71002 33.822 1.96802 32.868C1.26135 31.8787 0.90802 31.1543 0.90802 30.695V30.483C0.90802 29.741 1.34969 29.37 2.23302 29.37H15.218C16.1014 29.37 16.543 29.741 16.543 30.483V30.695C16.543 31.1543 16.1367 31.8787 15.324 32.868C14.5114 33.822 14.105 34.776 14.105 35.73V59.05C14.105 60.11 14.3347 61.011 14.794 61.753C15.2534 62.495 15.96 62.866 16.914 62.866H20.73C21.8254 62.866 22.8147 62.4597 23.698 61.647C24.5814 60.799 25.2527 59.8803 25.712 58.891C26.2067 57.9017 26.7544 57.0007 27.355 56.188C27.9557 55.34 28.5564 54.916 29.157 54.916H29.952C30.4114 54.916 30.747 55.0573 30.959 55.34C31.171 55.5873 31.2417 55.923 31.171 56.347L29.74 65.145C29.634 65.8163 29.422 66.2933 29.104 66.576C28.8214 66.8587 28.3797 67 27.779 67H2.23302Z" fill="#2D2E33"/>
<path d="M44.431 37.267C43.1943 38.3977 41.5866 38.963 39.608 38.963C37.6293 38.963 36.004 38.3977 34.732 37.267C33.4953 36.1363 32.877 34.7407 32.877 33.08C32.877 31.4193 33.4953 30.0413 34.732 28.946C36.004 27.8153 37.6293 27.25 39.608 27.25C41.5866 27.25 43.1943 27.8153 44.431 28.946C45.703 30.0413 46.339 31.4193 46.339 33.08C46.339 34.7407 45.703 36.1363 44.431 37.267ZM33.248 67C32.3646 67 31.923 66.629 31.923 65.887V65.675C31.923 65.2157 32.2763 64.509 32.983 63.555C33.725 62.5657 34.096 61.594 34.096 60.64V52.107C34.096 51.153 33.725 50.2167 32.983 49.298C32.2763 48.344 31.923 47.6727 31.923 47.284V47.072C31.923 46.6127 32.3646 46.171 33.248 45.747L42.311 41.295C43.0883 40.9417 43.7066 40.9063 44.166 41.189C44.6606 41.4717 44.908 41.9133 44.908 42.514V60.64C44.908 61.594 45.3143 62.5657 46.127 63.555C46.9396 64.509 47.346 65.2157 47.346 65.675V65.887C47.346 66.629 46.9043 67 46.021 67H33.248Z" fill="#2D2E33"/>
<path d="M77.8276 60.693C77.8983 61.6117 78.2339 62.5657 78.8346 63.555C79.4353 64.509 79.7356 65.2333 79.7356 65.728V65.94C79.7356 66.682 79.2939 67.053 78.4106 67.053H66.6976C65.8143 67.053 65.3726 66.682 65.3726 65.94V65.728C65.3726 65.2687 65.7083 64.562 66.3796 63.608C67.0509 62.6187 67.3513 61.647 67.2806 60.693L66.7506 51.524C66.6093 49.0153 66.3442 47.284 65.9556 46.33C65.5669 45.376 64.8602 44.899 63.8356 44.899C62.1042 44.899 61.2386 46.4183 61.2386 49.457V60.693C61.2386 61.647 61.6449 62.6187 62.4576 63.608C63.2703 64.562 63.6766 65.2687 63.6766 65.728V65.94C63.6766 66.682 63.2349 67.053 62.3516 67.053H49.5786C48.6952 67.053 48.2536 66.682 48.2536 65.94V65.728C48.2536 65.2687 48.6599 64.562 49.4726 63.608C50.2853 62.6187 50.6916 61.647 50.6916 60.693V51.736C50.6916 50.994 50.4443 50.358 49.9496 49.828C49.4549 49.2627 48.9603 48.768 48.4656 48.344C47.9709 47.8847 47.7236 47.443 47.7236 47.019V46.807C47.7236 46.3477 48.1829 45.8707 49.1016 45.376L57.4226 41.242C58.1293 40.924 58.6593 40.924 59.0126 41.242C59.4013 41.5247 59.5956 41.984 59.5956 42.62V44.793C61.0089 42.2843 63.4823 41.03 67.0156 41.03C69.6303 41.03 71.8916 41.878 73.7996 43.574C75.7076 45.2347 76.8206 48.0083 77.1386 51.895L77.8276 60.693Z" fill="#2D2E33"/>
<path d="M109.625 62.177C109.766 62.389 110.314 62.866 111.268 63.608C112.257 64.35 112.752 65.039 112.752 65.675V65.887C112.752 66.629 112.31 67 111.427 67H99.2371C98.3538 67 97.9121 66.6113 97.9121 65.834V65.622C97.9121 65.1627 98.1771 64.5973 98.7071 63.926C99.2371 63.2547 99.3431 62.6717 99.0251 62.177L95.2621 56.029L92.9831 58.149V60.64C92.9831 61.594 93.3894 62.5657 94.2021 63.555C95.0148 64.509 95.4211 65.2157 95.4211 65.675V65.887C95.4211 66.629 94.9794 67 94.0961 67H81.3231C80.4398 67 79.9981 66.629 79.9981 65.887V65.675C79.9981 65.2157 80.3514 64.509 81.0581 63.555C81.8001 62.5657 82.1711 61.594 82.1711 60.64V37.903C82.1711 36.949 81.7118 36.0127 80.7931 35.094C79.9098 34.14 79.4681 33.4687 79.4681 33.08V32.868C79.4681 32.4087 79.9098 31.967 80.7931 31.543L90.3861 27.091C91.1634 26.773 91.7818 26.7553 92.2411 27.038C92.7358 27.3207 92.9831 27.7447 92.9831 28.31V53.061L99.1841 47.814C99.6081 47.5313 99.7671 47.1603 99.6611 46.701C99.5904 46.2063 99.4138 45.7823 99.1311 45.429C98.8484 45.0757 98.5481 44.6517 98.2301 44.157C97.9474 43.6623 97.8061 43.256 97.8061 42.938V42.726C97.8061 41.9487 98.2478 41.56 99.1311 41.56H108.141C109.024 41.56 109.466 41.931 109.466 42.673V42.885C109.466 43.3797 109.201 43.8743 108.671 44.369C108.141 44.8283 107.381 45.3937 106.392 46.065C105.438 46.701 104.696 47.2663 104.166 47.761L101.516 50.252L109.625 62.177Z" fill="#2D2E33"/>
<path d="M123.01 67.477C119.582 67.477 116.738 66.9293 114.477 65.834C112.251 64.7033 111.138 63.1663 111.138 61.223C111.138 59.951 111.526 59.0147 112.304 58.414C113.081 57.778 114.088 57.46 115.325 57.46C116.632 57.46 117.674 57.8487 118.452 58.626C119.264 59.4033 119.777 60.269 119.989 61.223C120.236 62.1417 120.589 62.9897 121.049 63.767C121.543 64.5443 122.197 64.933 123.01 64.933C124.388 64.933 125.077 64.1203 125.077 62.495C125.077 61.2583 124.6 60.269 123.646 59.527C122.727 58.7497 121.614 58.1667 120.307 57.778C118.999 57.354 117.674 56.8947 116.332 56.4C115.024 55.87 113.894 55.022 112.94 53.856C112.021 52.69 111.562 51.1707 111.562 49.298C111.562 46.86 112.622 44.8813 114.742 43.362C116.862 41.8073 119.635 41.03 123.063 41.03C126.419 41.03 129.158 41.6483 131.278 42.885C133.398 44.0863 134.458 45.6057 134.458 47.443C134.458 48.4323 134.069 49.2803 133.292 49.987C132.514 50.6937 131.56 51.047 130.43 51.047C129.37 51.047 128.504 50.7997 127.833 50.305C127.161 49.775 126.684 49.1567 126.402 48.45C126.119 47.7433 125.872 47.0367 125.66 46.33C125.448 45.588 125.183 44.9697 124.865 44.475C124.582 43.945 124.176 43.68 123.646 43.68C122.515 43.68 121.95 44.5457 121.95 46.277C121.95 47.6197 122.391 48.715 123.275 49.563C124.158 50.3757 125.218 51.0117 126.455 51.471C127.727 51.895 128.981 52.3543 130.218 52.849C131.49 53.3437 132.567 54.1563 133.451 55.287C134.334 56.3823 134.776 57.7957 134.776 59.527C134.776 61.859 133.733 63.767 131.649 65.251C129.564 66.735 126.684 67.477 123.01 67.477Z" fill="#2D2E33"/>
<path d="M146.873 66.152C145.707 67.0707 144.223 67.53 142.421 67.53C140.619 67.53 139.135 67.0707 137.969 66.152C136.803 65.198 136.22 63.82 136.22 62.018C136.22 60.216 136.803 58.8557 137.969 57.937C139.135 56.983 140.619 56.506 142.421 56.506C144.223 56.506 145.707 56.983 146.873 57.937C148.039 58.8557 148.622 60.216 148.622 62.018C148.622 63.82 148.039 65.198 146.873 66.152Z" fill="#2D2E33"/>
<path d="M175.556 46.754C178.524 47.2133 180.874 48.3087 182.605 50.04C184.336 51.736 185.202 53.8383 185.202 56.347C185.202 59.633 183.683 62.23 180.644 64.138C177.641 66.046 172.924 67 166.493 67H152.13C151.247 67 150.805 66.629 150.805 65.887V65.675C150.805 65.2157 151.158 64.509 151.865 63.555C152.607 62.5657 152.978 61.594 152.978 60.64V35.73C152.978 34.776 152.607 33.822 151.865 32.868C151.158 31.8787 150.805 31.1543 150.805 30.695V30.483C150.805 29.741 151.247 29.37 152.13 29.37H167.553C172.217 29.37 175.697 30.271 177.994 32.073C180.291 33.8397 181.439 36.1363 181.439 38.963C181.439 40.9063 180.909 42.567 179.849 43.945C178.789 45.323 177.358 46.2593 175.556 46.754ZM163.737 36.472V42.143C163.737 43.0617 164.02 43.786 164.585 44.316C165.15 44.846 165.91 45.111 166.864 45.111H168.666C169.726 45.111 170.574 44.7047 171.21 43.892C171.881 43.044 172.217 41.9133 172.217 40.5C172.217 38.3093 171.758 36.5957 170.839 35.359C169.92 34.1223 168.701 33.504 167.182 33.504H166.493C164.656 33.504 163.737 34.4933 163.737 36.472ZM169.991 62.866C171.086 62.866 171.987 62.4067 172.694 61.488C173.401 60.534 173.754 59.3503 173.754 57.937C173.754 55.8523 172.941 53.8737 171.316 52.001C169.726 50.1283 167.571 49.192 164.85 49.192H163.737V57.831C163.737 59.2797 164.143 60.481 164.956 61.435C165.769 62.389 166.846 62.866 168.189 62.866H169.991Z" fill="#2D2E33"/>
<path d="M208.053 58.414C208.441 57.99 208.883 57.8663 209.378 58.043C209.872 58.2197 210.12 58.6083 210.12 59.209C210.12 60.9757 209.113 62.813 207.099 64.721C205.12 66.5937 202.541 67.53 199.361 67.53C195.403 67.53 192.188 66.2933 189.715 63.82C187.277 61.3467 186.058 58.1137 186.058 54.121C186.058 50.2697 187.347 47.125 189.927 44.687C192.541 42.249 195.633 41.03 199.202 41.03C202.452 41.03 204.961 41.7543 206.728 43.203C208.53 44.6517 209.431 46.277 209.431 48.079C209.431 49.3863 208.83 50.4287 207.629 51.206L198.036 57.46C199.414 59.2267 201.18 60.11 203.336 60.11C205.35 60.11 206.922 59.5447 208.053 58.414ZM198.354 43.892C197.506 43.892 196.817 44.316 196.287 45.164C195.792 46.012 195.545 47.019 195.545 48.185C195.545 50.5877 195.863 52.69 196.499 54.492L199.891 52.001C200.809 51.3297 201.269 50.358 201.269 49.086C201.269 48.6267 201.233 48.1497 201.163 47.655C201.092 47.125 200.951 46.5597 200.739 45.959C200.562 45.3583 200.262 44.8637 199.838 44.475C199.414 44.0863 198.919 43.892 198.354 43.892Z" fill="#2D2E33"/>
<path d="M232.82 58.414C233.209 57.99 233.65 57.8663 234.145 58.043C234.64 58.2197 234.887 58.6083 234.887 59.209C234.887 60.9757 233.88 62.813 231.866 64.721C229.887 66.5937 227.308 67.53 224.128 67.53C220.171 67.53 216.955 66.2933 214.482 63.82C212.044 61.3467 210.825 58.1137 210.825 54.121C210.825 50.2697 212.115 47.125 214.694 44.687C217.309 42.249 220.4 41.03 223.969 41.03C227.22 41.03 229.728 41.7543 231.495 43.203C233.297 44.6517 234.198 46.277 234.198 48.079C234.198 49.3863 233.597 50.4287 232.396 51.206L222.803 57.46C224.181 59.2267 225.948 60.11 228.103 60.11C230.117 60.11 231.689 59.5447 232.82 58.414ZM223.121 43.892C222.273 43.892 221.584 44.316 221.054 45.164C220.559 46.012 220.312 47.019 220.312 48.185C220.312 50.5877 220.63 52.69 221.266 54.492L224.658 52.001C225.577 51.3297 226.036 50.358 226.036 49.086C226.036 48.6267 226.001 48.1497 225.93 47.655C225.859 47.125 225.718 46.5597 225.506 45.959C225.329 45.3583 225.029 44.8637 224.605 44.475C224.181 44.0863 223.686 43.892 223.121 43.892Z" fill="#2D2E33"/>
<path d="M272.198 14.5858C270.682 14.5858 269.217 15.1364 268.077 16.1352L256.72 26.0813H272.198C275.372 26.0813 277.945 23.5079 277.945 20.3335C277.945 17.1591 275.372 14.5858 272.198 14.5858Z" fill="#A0C8FF"/>
<path d="M267.658 33.8161C266.617 33.8161 265.622 33.3917 264.901 32.6409L258.605 26.081H267.565C269.727 26.081 271.479 27.8334 271.479 29.9951C271.479 32.1054 269.768 33.8161 267.658 33.8161Z" fill="#DFEDFF"/>
<path d="M236.342 33.8161C237.383 33.8161 238.378 33.3917 239.099 32.6409L245.395 26.081H236.435C234.273 26.081 232.521 27.8334 232.521 29.9951C232.521 32.1054 234.232 33.8161 236.342 33.8161Z" fill="#DFEDFF"/>
<path d="M231.802 14.5858C233.318 14.5858 234.783 15.1364 235.923 16.1352L247.28 26.0813H231.802C228.628 26.0812 226.055 23.5078 226.055 20.3334C226.055 17.1591 228.628 14.5858 231.802 14.5858Z" fill="#A0C8FF"/>
<path d="M255.025 17.1873H248.975C246.519 17.1873 244.528 19.1782 244.528 21.6342C244.528 24.0901 246.519 26.081 248.975 26.081H255.025C257.481 26.081 259.472 24.0901 259.472 21.6342C259.472 19.1783 257.481 17.1873 255.025 17.1873Z" fill="#FFCD69"/>
<path d="M252 12.5467C249.437 12.5467 247.359 14.6244 247.359 17.1873H256.641C256.641 14.6244 254.563 12.5467 252 12.5467Z" fill="#8AA8BD"/>
<path d="M259.969 27.6171C259.399 26.6583 258.355 26.0809 257.239 26.0809H246.76C245.645 26.0809 244.601 26.6582 244.03 27.6171C243.063 29.2418 242.634 31.1034 242.75 32.9418H261.25C261.366 31.1035 260.936 29.2418 259.969 27.6171Z" fill="#FFCD69"/>
<path d="M252 46.6636L257.835 39.8028H246.164L252 46.6636Z" fill="#FFCD69"/>
<path d="M261.25 32.9416H242.75C242.871 34.8748 243.595 36.7821 244.938 38.3606L246.165 39.8026H257.836L259.062 38.3606C260.405 36.7821 261.129 34.8748 261.25 32.9416Z" fill="#8AA8BD"/>
<path d="M279 20.3336C279 18.6829 278.401 17.0908 277.314 15.8508C276.93 15.4128 276.264 15.3692 275.826 15.7531C275.388 16.1371 275.344 16.8034 275.728 17.2415C276.478 18.0966 276.891 19.1947 276.891 20.3336C276.891 22.9214 274.785 25.0266 272.198 25.0266H259.525L268.496 17.1702C268.934 16.7864 268.978 16.1201 268.595 15.6819C268.211 15.2437 267.545 15.1996 267.106 15.5833L260.52 21.3518C260.421 19.4002 259.299 17.7145 257.682 16.8188C257.571 15.0849 256.681 13.5602 255.358 12.5912C255.63 10.2301 257.64 8.39041 260.073 8.39041C260.656 8.39041 261.128 7.91823 261.128 7.33572C261.128 6.75322 260.656 6.28104 260.073 6.28104C256.799 6.28104 254.055 8.58817 253.378 11.6616C252.936 11.5515 252.475 11.4921 252 11.4921C251.525 11.4921 251.064 11.5515 250.622 11.6616C249.945 8.58817 247.201 6.28104 243.927 6.28104C243.345 6.28104 242.872 6.75322 242.872 7.33572C242.872 7.91823 243.345 8.39041 243.927 8.39041C246.36 8.39041 248.37 10.2301 248.642 12.5912C247.32 13.5602 246.429 15.0849 246.318 16.8188C244.701 17.7146 243.58 19.4003 243.48 21.3518L236.618 15.3418C235.285 14.1742 233.575 13.5312 231.803 13.5312C228.052 13.5313 225 16.5828 225 20.3336C225 24.0844 228.052 27.136 231.802 27.136H232.375C231.804 27.9453 231.466 28.9314 231.466 29.9954C231.466 32.6839 233.654 34.8711 236.342 34.8711C237.663 34.8711 238.945 34.3245 239.86 33.3715L241.716 31.4382C241.476 34.135 242.3 36.8867 244.135 39.0445L251.197 47.3473C251.397 47.5829 251.691 47.7187 252 47.7187C252.309 47.7187 252.603 47.5829 252.803 47.3473L259.865 39.0445C261.701 36.8867 262.524 34.135 262.285 31.4382L264.14 33.3715C265.055 34.3244 266.337 34.871 267.658 34.871C270.346 34.871 272.534 32.6838 272.534 29.9953C272.534 28.9313 272.196 27.9452 271.625 27.1359H272.198C275.948 27.136 279 24.0845 279 20.3336ZM257.24 27.136C257.99 27.136 258.689 27.5272 259.063 28.1569C259.754 29.3179 260.13 30.5986 260.203 31.8876H243.797C243.87 30.5986 244.246 29.318 244.937 28.157C245.312 27.5273 246.01 27.1361 246.76 27.1361H257.24V27.136ZM248.572 16.1328C249.024 14.6685 250.39 13.6015 252 13.6015C253.61 13.6015 254.976 14.6685 255.428 16.1328H248.572ZM248.975 18.2421H255.025C256.896 18.2421 258.417 19.7638 258.417 21.6343C258.417 23.5048 256.896 25.0266 255.025 25.0266H248.975C247.104 25.0266 245.583 23.5048 245.583 21.6343C245.583 19.764 247.104 18.2421 248.975 18.2421ZM227.109 20.3336C227.109 17.7458 229.215 15.6405 231.802 15.6405C233.063 15.6405 234.28 16.098 235.228 16.9285L244.475 25.0265H231.802C229.215 25.0266 227.109 22.9214 227.109 20.3336ZM238.338 31.9109C237.819 32.4516 237.092 32.7617 236.342 32.7617C234.817 32.7617 233.576 31.5208 233.576 29.9954C233.576 28.4187 234.859 27.136 236.435 27.136H242.921L238.338 31.9109ZM252 45.0362L248.446 40.8578H255.554L252 45.0362ZM258.259 37.6778L257.348 38.7483H246.652L245.741 37.6778C244.821 36.5955 244.22 35.3253 243.949 33.9969H260.051C259.78 35.3253 259.179 36.5955 258.259 37.6778ZM270.424 29.9954C270.424 31.5208 269.183 32.7617 267.658 32.7617C266.909 32.7617 266.181 32.4516 265.662 31.911L261.079 27.136H267.565C269.142 27.136 270.424 28.4187 270.424 29.9954Z" fill="black"/>
<path d="M272.197 15.6408C272.476 15.6408 272.747 15.5279 272.943 15.3317C273.14 15.1356 273.252 14.8635 273.252 14.5861C273.252 14.3087 273.14 14.0366 272.943 13.8404C272.747 13.6442 272.476 13.5314 272.197 13.5314C271.92 13.5314 271.648 13.6442 271.452 13.8404C271.255 14.0366 271.143 14.3087 271.143 14.5861C271.143 14.8635 271.255 15.1356 271.452 15.3317C271.648 15.5279 271.92 15.6408 272.197 15.6408Z" fill="black"/>
</svg>
